<?xml version="1.0"?>
<!--Icons from directory ""-->
<svg xmlns="http://www.w3.org/2000/svg" width="32" height="416" viewBox="0 0 32 416">
<symbol viewBox="0 0 24 24" id="dislike"><g id="dislike-Frames-24px">	<rect width="24" height="24" fill="none"/></g><g id="dislike-Solid">	<g>		<path d="m19 14h4c0.552 0 1-0.448 1-1v-10c0-0.552-0.448-1-1-1h-4c-0.552 0-1 0.448-1 1v10c0 0.552 0.448 1 1 1z"/>		<path d="m1.232 14.641c0.19 0.227 0.472 0.359 0.768 0.359h6v4c0 0.552 0.448 1 1 1h3c0.4 0 0.762-0.238 0.919-0.606l3.081-6.394v-9.478l-3.628-1.451c-0.119-0.047-0.245-0.071-0.372-0.071h-8c-0.483 0-0.897 0.346-0.984 0.821l-2 11c-0.053 0.292 0.026 0.592 0.216 0.82z"/>	</g></g></symbol>
<symbol viewBox="0 0 24 24" id="interact"><g id="interact-Frames-24px">	<rect width="24" height="24" fill="none"/></g><g id="interact-Solid">	<path d="m4 2c-1.104 0-2 0.896-2 2v12c0 1.104 0.896 2 2 2h3v4l4-4h9c1.104 0 2-0.896 2-2v-12c0-1.104-0.896-2-2-2h-16z"/></g></symbol>
<symbol id="left-2" viewBox="0 0 24 24"><polygon points="3.3 12 20.9 19.8 16 12 20.9 4.2"/></symbol>
<symbol id="left" viewBox="0 0 24 24"><g id="left-Frames-24px">	<rect width="24" height="24" class="st0" fill="none"/></g><g id="left-Solid">	<polygon points="17.1 10.5 17.1 10.5 17.1 4.9 4.4 12 17.1 19.1 17.1 13.5 17.1 13.5" class="st1"/></g></symbol>
<symbol viewBox="0 0 24 24" id="lock"><g id="lock-Frames-24px">	<rect width="24" height="24" fill="none"/></g><g id="lock-Solid">	<path d="m17 11v-4c0-2.757-2.243-5-5-5s-5 2.243-5 5v4c-1.103 0-2 0.896-2 2v7c0 1.103 0.897 2 2 2h10c1.103 0 2-0.897 2-2v-7c0-1.104-0.897-2-2-2zm-5 7c-0.828 0-1.5-0.672-1.5-1.5s0.671-1.5 1.5-1.5 1.5 0.672 1.5 1.5-0.672 1.5-1.5 1.5zm3-7h-6v-4c0-1.654 1.346-3 3-3s3 1.346 3 3v4z"/></g></symbol>
<symbol id="love" viewBox="0 0 24 24"><g id="love-Frames-24px">	<rect height="23" x="1.5" width="23" class="st0" fill="none"/></g><g id="love-Solid">			<path d="m23.1 10.2c0 6.3-9 11.9-10 12.5-0.5 0.2-0.8 0.3-1.1 0.3s-0.7-0.1-0.9-0.3c-1-0.6-10-6.2-10-12.5 0-4.4 2.9-7.3 7.3-7.3 1.3 0 2.7 0.6 3.7 1.5 1-0.9 2.3-1.5 3.7-1.5 4.4 0 7.3 2.9 7.3 7.3z"/></g></symbol>
<symbol id="next" viewBox="0 0 24 24"><rect width="24" height="24" fill="none"/>	<path d="m7.3 11.4l10.4-7.8c0.4-0.3 0.8-0.1 0.8 0.4v2.8l-7 5.3 7 5.2v2.7c0 0.5-0.4 0.7-0.8 0.4l-10.4-7.8c-0.4-0.3-0.4-0.9 0-1.2z"/></symbol>
<symbol id="previous" viewBox="0 0 24 24"><rect width="24" height="24" fill="none"/>	<path d="m18.2 11.4l-10.4-7.8c-0.4-0.3-0.8-0.1-0.8 0.4v2.8l7 5.3-7 5.2v2.7c0 0.5 0.4 0.7 0.8 0.4l10.4-7.8c0.4-0.3 0.4-0.9 0-1.2z"/></symbol>
<symbol viewBox="0 0 24 24" id="punch"><g id="punch-Frames-24px">	<rect width="24" height="24" fill="none"/></g><g id="punch-Solid">	<g>		<path d="m12 3.003c-4.971 0-9 4.029-9 9s4.029 9 9 9 9-4.029 9-9-4.029-9-9-9zm0 15c-3.313 0-6-2.687-6-6s2.687-6 6-6 6 2.687 6 6c0 3.313-2.687 6-6 6z"/>		<circle cy="12.003" cx="12" r="3"/>	</g></g></symbol>
<symbol id="right-2" viewBox="0 0 24 24"><polygon points="20.9 12 3.3 19.8 8.2 12 3.3 4.2"/></symbol>
<symbol id="right" viewBox="0 0 24 24"><g id="right-Frames-24px">	<rect width="24" height="24" fill="none"/></g><g id="right-Solid">	<polygon points="6.9 13.5 6.9 13.5 6.9 19.1 19.6 12 6.9 4.9 6.9 10.5 6.9 10.5"/></g></symbol>
<symbol id="shoot" viewBox="0 0 24 24"><g id="shoot-Frames-24px">	<rect width="24" height="24" fill="none"/></g><g id="shoot-Outline">		<path d="m24 11h-2.1c-0.5-4.7-4.2-8.5-8.9-8.9v-2.1h-2v2.1c-4.7 0.4-8.5 4.2-9 8.9h-2v2h2c0.5 4.7 4.2 8.5 8.9 8.9v2.1h2v-2.1c4.7-0.5 8.5-4.2 8.9-8.9h2.2v-2zm-11 8.9v-0.9h-2v0.9c-3.6-0.5-6.5-3.3-6.9-6.9h0.9v-2h-0.9c0.4-3.6 3.3-6.5 6.9-6.9v0.9h2v-0.9c3.6 0.5 6.5 3.3 6.9 6.9h-0.9v2h0.9c-0.4 3.6-3.3 6.5-6.9 6.9z"/></g></symbol>
<symbol viewBox="0 0 24 24" id="talk"><g id="talk-Frames-24px">	<rect width="24" height="24" fill="none"/></g><g id="talk-Solid">	<path d="m20 2h-16c-1.104 0-2 0.896-2 2v12c0 1.104 0.896 2 2 2h1v4l4-4h11c1.104 0 2-0.896 2-2v-12c0-1.104-0.896-2-2-2zm-5 3.75c0.689 0 1.25 0.56 1.25 1.25s-0.561 1.25-1.25 1.25-1.25-0.56-1.25-1.25 0.561-1.25 1.25-1.25zm-6 0c0.689 0 1.25 0.56 1.25 1.25s-0.561 1.25-1.25 1.25-1.25-0.56-1.25-1.25 0.561-1.25 1.25-1.25zm3 8.25c-2.05 0-3.806-1.236-4.578-3h9.156c-0.772 1.764-2.528 3-4.578 3z"/></g></symbol>
</svg>
